<svg width="256" height="256" viewBox="0 0 256 256" fill="none" xmlns="http://www.w3.org/2000/svg">
  <rect width="256" height="256" rx="56" fill="url(#bg)"/>
  <circle cx="205" cy="58" r="22" fill="rgba(255,255,255,0.82)"/>
  <path d="M205 44L209.5 53.5L220 58L209.5 62.5L205 72L200.5 62.5L190 58L200.5 53.5L205 44Z" fill="#3D76FF"/>
  <rect x="46" y="48" width="164" height="160" rx="48" fill="url(#panel)" stroke="rgba(94,129,220,0.22)" stroke-width="2"/>
  <rect x="58" y="66" width="140" height="124" rx="34" fill="url(#inner)"/>
  <path d="M92 106C92 97.1634 99.1634 90 108 90H148C156.837 90 164 97.1634 164 106V114H92V106Z" fill="#E8F0FF"/>
  <circle cx="108" cy="127" r="10" fill="#294B99"/>
  <circle cx="148" cy="127" r="10" fill="#294B99"/>
  <path d="M106 154C116 166.667 140 166.667 150 154" stroke="#294B99" stroke-width="8" stroke-linecap="round"/>
  <circle cx="92" cy="143" r="7" fill="#FFB8C8"/>
  <circle cx="164" cy="143" r="7" fill="#FFB8C8"/>
  <rect x="77" y="180" width="102" height="12" rx="6" fill="#D8E5FF"/>
  <rect x="88" y="198" width="80" height="8" rx="4" fill="#E9F1FF"/>
  <defs>
    <linearGradient id="bg" x1="30" y1="20" x2="224" y2="236" gradientUnits="userSpaceOnUse">
      <stop stop-color="#4A7DFF"/>
      <stop offset="0.52" stop-color="#7ED1FF"/>
      <stop offset="1" stop-color="#FFE28A"/>
    </linearGradient>
    <linearGradient id="panel" x1="64" y1="44" x2="192" y2="214" gradientUnits="userSpaceOnUse">
      <stop stop-color="#FFFFFF"/>
      <stop offset="1" stop-color="#F2F7FF"/>
    </linearGradient>
    <linearGradient id="inner" x1="82" y1="66" x2="186" y2="190" gradientUnits="userSpaceOnUse">
      <stop stop-color="#F7FBFF"/>
      <stop offset="1" stop-color="#E7F0FF"/>
    </linearGradient>
  </defs>
</svg>
