<svg xmlns="http://www.w3.org/2000/svg" viewBox="0 0 1120 1950" role="img" aria-labelledby="system-map-title system-map-desc"><title id="system-map-title">한국어 테스트셋 생성 규칙 정리: 구조와 결정 흐름</title><desc id="system-map-desc">사람이 검토하는 slot matrix와 생성기 규칙을 분리하고 schedule, positive, negative, command 데이터의 품질 gate와 157/176 coverage 미달을 정리한다.</desc><defs><marker id="system-map-arrow" viewBox="0 0 10 10" refX="5" refY="5" markerWidth="7" markerHeight="7" orient="auto-start-reverse"><path d="M 0 0 L 10 5 L 0 10 z" fill="#52606d"/></marker></defs><rect width="1120" height="1950" fill="#ffffff"/><text fill="#17212b" font-size="24" font-weight="700"><tspan x="80" y="52">한국어 테스트셋 생성 규칙 정리: 구조와 결정 흐름</tspan></text><text fill="#52606d" font-size="13"><tspan x="80" y="86">사람이 검토하는 slot matrix와 생성기 규칙을 분리하고</tspan><tspan x="80" y="108">schedule, positive, negative, command 데이터의</tspan><tspan x="80" y="130">품질 gate와 157/176 coverage 미달을 정리한다.</tspan></text><g data-flow="flow-01"><path d="M 560 282 L 560 338" fill="none" stroke="#7b8794" stroke-width="2" marker-end="url(#system-map-arrow)"/><rect x="518" y="300" width="84" height="24" rx="4" fill="#ffffff" stroke="#d6dce2"/><text x="560" y="317" text-anchor="middle" fill="#52606d" font-size="11">다음 판단</text></g><g data-flow="flow-02"><path d="M 560 440 L 560 496" fill="none" stroke="#7b8794" stroke-width="2" marker-end="url(#system-map-arrow)"/><rect x="518" y="458" width="84" height="24" rx="4" fill="#ffffff" stroke="#d6dce2"/><text x="560" y="475" text-anchor="middle" fill="#52606d" font-size="11">다음 판단</text></g><g data-flow="flow-03"><path d="M 560 598 L 560 654" fill="none" stroke="#7b8794" stroke-width="2" marker-end="url(#system-map-arrow)"/><rect x="518" y="616" width="84" height="24" rx="4" fill="#ffffff" stroke="#d6dce2"/><text x="560" y="633" text-anchor="middle" fill="#52606d" font-size="11">다음 판단</text></g><g data-flow="flow-04"><path d="M 560 756 L 560 812" fill="none" stroke="#7b8794" stroke-width="2" marker-end="url(#system-map-arrow)"/><rect x="524" y="774" width="72" height="24" rx="4" fill="#ffffff" stroke="#d6dce2"/><text x="560" y="791" text-anchor="middle" fill="#52606d" font-size="11">검증</text></g><g data-flow="flow-05"><path d="M 560 914 L 560 970" fill="none" stroke="#7b8794" stroke-width="2" marker-end="url(#system-map-arrow)"/><rect x="518" y="932" width="84" height="24" rx="4" fill="#ffffff" stroke="#d6dce2"/><text x="560" y="949" text-anchor="middle" fill="#52606d" font-size="11">다음 판단</text></g><g data-flow="flow-06"><path d="M 560 1072 L 560 1128" fill="none" stroke="#7b8794" stroke-width="2" marker-end="url(#system-map-arrow)"/><rect x="518" y="1090" width="84" height="24" rx="4" fill="#ffffff" stroke="#d6dce2"/><text x="560" y="1107" text-anchor="middle" fill="#52606d" font-size="11">다음 판단</text></g><g data-flow="flow-07"><path d="M 560 1230 L 560 1286" fill="none" stroke="#7b8794" stroke-width="2" marker-end="url(#system-map-arrow)"/><rect x="518" y="1248" width="84" height="24" rx="4" fill="#ffffff" stroke="#d6dce2"/><text x="560" y="1265" text-anchor="middle" fill="#52606d" font-size="11">다음 판단</text></g><g data-flow="flow-08"><path d="M 560 1388 L 560 1444" fill="none" stroke="#7b8794" stroke-width="2" marker-end="url(#system-map-arrow)"/><rect x="518" y="1406" width="84" height="24" rx="4" fill="#ffffff" stroke="#d6dce2"/><text x="560" y="1423" text-anchor="middle" fill="#52606d" font-size="11">다음 판단</text></g><g data-flow="flow-09"><path d="M 560 1546 L 560 1602" fill="none" stroke="#7b8794" stroke-width="2" marker-end="url(#system-map-arrow)"/><rect x="518" y="1564" width="84" height="24" rx="4" fill="#ffffff" stroke="#d6dce2"/><text x="560" y="1581" text-anchor="middle" fill="#52606d" font-size="11">다음 판단</text></g><g data-flow="flow-10"><path d="M 560 1704 L 560 1760" fill="none" stroke="#7b8794" stroke-width="2" marker-end="url(#system-map-arrow)"/><rect x="518" y="1722" width="84" height="24" rx="4" fill="#ffffff" stroke="#d6dce2"/><text x="560" y="1739" text-anchor="middle" fill="#52606d" font-size="11">현재 결과</text></g><g data-node="slot-model"><rect x="80" y="188" width="960" height="94" rx="6" fill="#f1f1f1" stroke="#52606d" stroke-width="1.5"/><circle cx="116" cy="222" r="18" fill="#17212b"/><text x="116" y="227" text-anchor="middle" fill="#ffffff" font-size="13" font-weight="700">1</text><text x="150" y="219" fill="#17212b" font-size="17" font-weight="700">slot 상태를 다섯 집합으로 분리</text><text x="1022" y="219" text-anchor="end" fill="#52606d" font-size="11">guardrail</text><text x="150" y="250" fill="#52606d" font-size="12">slot을 required, optional, disabled, inferred, changeable로 나눈다. 발화...</text></g><g data-node="alias-dependency"><rect x="80" y="346" width="960" height="94" rx="6" fill="#f1f1f1" stroke="#52606d" stroke-width="1.5"/><circle cx="116" cy="380" r="18" fill="#17212b"/><text x="116" y="385" text-anchor="middle" fill="#ffffff" font-size="13" font-weight="700">2</text><text x="150" y="377" fill="#17212b" font-size="17" font-weight="700">alias와 dependency를 별도 규칙으로 관리</text><text x="1022" y="377" text-anchor="end" fill="#52606d" font-size="11">guardrail</text><text x="150" y="408" fill="#52606d" font-size="12">canonical value와 다양한 표현은 term dictionary에 모은다. 하위 조건의 parent-chil...</text></g><g data-node="one-condition-row"><rect x="80" y="504" width="960" height="94" rx="6" fill="#f1f1f1" stroke="#52606d" stroke-width="1.5"/><circle cx="116" cy="538" r="18" fill="#17212b"/><text x="116" y="543" text-anchor="middle" fill="#ffffff" font-size="13" font-weight="700">3</text><text x="150" y="535" fill="#17212b" font-size="17" font-weight="700">조건 조합 하나를 한 행으로 유지</text><text x="1022" y="535" text-anchor="end" fill="#52606d" font-size="11">guardrail</text><text x="150" y="566" fill="#52606d" font-size="12">한 조건 조합을 여러 행으로 흩뜨리지 않고 문장형, 키워드형, fragment와 alias 발화를 같은 행에 묶는다....</text></g><g data-node="generator-ownership"><rect x="80" y="662" width="960" height="94" rx="6" fill="#fff4d8" stroke="#52606d" stroke-width="1.5"/><circle cx="116" cy="696" r="18" fill="#17212b"/><text x="116" y="701" text-anchor="middle" fill="#ffffff" font-size="13" font-weight="700">4</text><text x="150" y="693" fill="#17212b" font-size="17" font-weight="700">수정 조합은 generator가 생성</text><text x="1022" y="693" text-anchor="end" fill="#52606d" font-size="11">process</text><text x="150" y="724" fill="#52606d" font-size="12">사람이 가능한 change slot 조합을 모두 직접 쓰지 않는다. changeable slots와 pattern t...</text></g><g data-node="schedule-output"><rect x="80" y="820" width="960" height="94" rx="6" fill="#f1f1f1" stroke="#52606d" stroke-width="1.5"/><circle cx="116" cy="854" r="18" fill="#17212b"/><text x="116" y="859" text-anchor="middle" fill="#ffffff" font-size="13" font-weight="700">5</text><text x="150" y="851" fill="#17212b" font-size="17" font-weight="700">schedule matrix 2,641행</text><text x="1022" y="851" text-anchor="end" fill="#52606d" font-size="11">guardrail</text><text x="150" y="882" fill="#52606d" font-size="12">schedule matrix 산출물은 2,641행이며 현재 worklog는 조건당 한 행과 주요 발화 공백이 없다고...</text></g><g data-node="positive-data"><rect x="80" y="978" width="960" height="94" rx="6" fill="#eaf4ea" stroke="#52606d" stroke-width="1.5"/><circle cx="116" cy="1012" r="18" fill="#17212b"/><text x="116" y="1017" text-anchor="middle" fill="#ffffff" font-size="13" font-weight="700">6</text><text x="150" y="1009" fill="#17212b" font-size="17" font-weight="700">positive는 source span을 필수화</text><text x="1022" y="1009" text-anchor="end" fill="#52606d" font-size="11">state</text><text x="150" y="1040" fill="#52606d" font-size="12">문서에서 답할 수 있는 질문만 만들고 source span, intent, tone과 answerable을 함께 남긴...</text></g><g data-node="negative-data"><rect x="80" y="1136" width="960" height="94" rx="6" fill="#f1f1f1" stroke="#52606d" stroke-width="1.5"/><circle cx="116" cy="1170" r="18" fill="#17212b"/><text x="116" y="1175" text-anchor="middle" fill="#ffffff" font-size="13" font-weight="700">7</text><text x="150" y="1167" fill="#17212b" font-size="17" font-weight="700">negative는 route별 경계를 설계</text><text x="1022" y="1167" text-anchor="end" fill="#52606d" font-size="11">guardrail</text><text x="150" y="1198" fill="#52606d" font-size="12">unsupported, 일반 대화, 외부 지식과 공격·민감 경계를 route quota로 나누고 중복, 길이와 금지...</text></g><g data-node="command-family"><rect x="80" y="1294" width="960" height="94" rx="6" fill="#eaf4ea" stroke="#52606d" stroke-width="1.5"/><circle cx="116" cy="1328" r="18" fill="#17212b"/><text x="116" y="1333" text-anchor="middle" fill="#ffffff" font-size="13" font-weight="700">8</text><text x="150" y="1325" fill="#17212b" font-size="17" font-weight="700">command는 action family를 먼저 본다</text><text x="1022" y="1325" text-anchor="end" fill="#52606d" font-size="11">state</text><text x="150" y="1356" fill="#52606d" font-size="12">표면 동사가 비슷하더라도 이동, 복귀, 상태 조회와 설정 변경에는 서로 다른 표현 제약이 필요하다. action fa...</text></g><g data-node="command-gap"><rect x="80" y="1452" width="960" height="94" rx="6" fill="#eaf4ea" stroke="#52606d" stroke-width="1.5"/><circle cx="116" cy="1486" r="18" fill="#17212b"/><text x="116" y="1491" text-anchor="middle" fill="#ffffff" font-size="13" font-weight="700">9</text><text x="150" y="1483" fill="#17212b" font-size="17" font-weight="700">command coverage 157/176</text><text x="1022" y="1483" text-anchor="end" fill="#52606d" font-size="11">state</text><text x="150" y="1514" fill="#52606d" font-size="12">초기 범위는 73개에서 157개로 넓어졌지만 후속 검토에서 수행 불가 항목만 제외한 대표 기준은 약 176개로 정정됐...</text></g><g data-node="archive-and-rollback"><rect x="80" y="1610" width="960" height="94" rx="6" fill="#f1f1f1" stroke="#52606d" stroke-width="1.5"/><circle cx="116" cy="1644" r="18" fill="#17212b"/><text x="116" y="1649" text-anchor="middle" fill="#ffffff" font-size="13" font-weight="700">10</text><text x="150" y="1641" fill="#17212b" font-size="17" font-weight="700">이전 형식을 archive로 보존</text><text x="1022" y="1641" text-anchor="end" fill="#52606d" font-size="11">guardrail</text><text x="150" y="1672" fill="#52606d" font-size="12">v0 입력과 결과를 삭제하지 않고 archive로 옮겨 최신 형식과 분리했다. 확정 matrix와 충돌하는 참고 pr...</text></g><g data-node="limitations"><rect x="80" y="1768" width="960" height="94" rx="6" fill="#eaf0fa" stroke="#52606d" stroke-width="1.5"/><circle cx="116" cy="1802" r="18" fill="#17212b"/><text x="116" y="1807" text-anchor="middle" fill="#ffffff" font-size="13" font-weight="700">11</text><text x="150" y="1799" fill="#17212b" font-size="17" font-weight="700">생성 통과 이후의 gate</text><text x="1022" y="1799" text-anchor="end" fill="#52606d" font-size="11">output</text><text x="150" y="1830" fill="#52606d" font-size="12">command는 157/176으로 미달이고 positive source span의 사람 정답성 감사가 없다. 생성 문...</text></g></svg>
